999
dxfrw 0.6.3
  0
SECTION
  2
HEADER
  9
$ACADVER
  1
AC1021
  9
$DWGCODEPAGE
  3
ANSI_936
  9
$INSBASE
 10
0
 20
0
 30
0
  9
$EXTMIN
 10
-230.0000000000001
 20
-65.00000000024575
 30
0
  9
$EXTMAX
 10
769.9999999999935
 20
65.00000000000007
 30
0
  9
$LIMMIN
 10
0
 20
0
  9
$LIMMAX
 10
420
 20
297
  9
$ORTHOMODE
 70
    0
  9
$REGENMODE
 70
    1
  9
$FILLMODE
 70
    1
  9
$QTEXTMODE
 70
    0
  9
$MIRRTEXT
 70
    1
  9
$LTSCALE
 40
1
  9
$ATTMODE
 70
    1
  9
$TEXTSIZE
 40
3.5
  9
$TRACEWID
 40
1
  9
$TEXTSTYLE
  7
Standard
  9
$CLAYER
  8
0
  9
$CELTYPE
  6
ByLayer
  9
$CECOLOR
 62
  256
  9
$CELTSCALE
 40
1
  9
$DISPSILH
 70
    0
  9
$DIMSCALE
 40
1
  9
$DIMASZ
 40
3.556
  9
$DIMEXO
 40
0
  9
$DIMDLI
 40
3.75
  9
$DIMRND
 40
0
  9
$DIMDLE
 40
0
  9
$DIMEXE
 40
1
  9
$DIMTP
 40
0
  9
$DIMTM
 40
0
  9
$DIMTXT
 40
3.5
  9
$DIMCEN
 40
2.5
  9
$DIMTSZ
 40
0
  9
$DIMTOL
 70
    0
  9
$DIMLIM
 70
    0
  9
$DIMTIH
 70
    1
  9
$DIMTOH
 70
    1
  9
$DIMSE1
 70
    0
  9
$DIMSE2
 70
    0
  9
$DIMTAD
 70
    1
  9
$DIMZIN
 70
    1
  9
$DIMBLK
  1

  9
$DIMASO
 70
    1
  9
$DIMSHO
 70
    1
  9
$DIMPOST
  1

  9
$DIMAPOST
  1

  9
$DIMALT
 70
    0
  9
$DIMALTD
 70
    3
  9
$DIMALTF
 40
0.0393700787
  9
$DIMLFAC
 40
1
  9
$DIMTOFL
 70
    1
  9
$DIMTVP
 40
0
  9
$DIMTIX
 70
    0
  9
$DIMSOXD
 70
    0
  9
$DIMSAH
 70
    0
  9
$DIMBLK1
  1

  9
$DIMBLK2
  1

  9
$DIMSTYLE
  2
ISO-25
  9
$DIMCLRD
 70
    0
  9
$DIMCLRE
 70
    0
  9
$DIMCLRT
 70
    0
  9
$DIMTFAC
 40
1
  9
$DIMGAP
 40
1.524
  9
$DIMJUST
 70
    0
  9
$DIMSD1
 70
    0
  9
$DIMSD2
 70
    0
  9
$DIMTOLJ
 70
    0
  9
$DIMTZIN
 70
    1
  9
$DIMALTZ
 70
    0
  9
$DIMALTTZ
 70
    0
  9
$DIMUPT
 70
    0
  9
$DIMDEC
 70
    2
  9
$DIMTDEC
 70
    2
  9
$DIMALTU
 70
    2
  9
$DIMALTTD
 70
    3
  9
$DIMTXSTY
  7
Standard
  9
$DIMAUNIT
 70
    0
  9
$DIMADEC
 70
    0
  9
$DIMALTRND
 40
0
  9
$DIMAZIN
 70
    0
  9
$DIMDSEP
 70
   44
  9
$DIMATFIT
 70
    3
  9
$DIMFRAC
 70
    0
  9
$DIMLDRBLK
  1

  9
$DIMLUNIT
 70
    2
  9
$DIMLWD
 70
   -2
  9
$DIMLWE
 70
   -2
  9
$DIMTMOVE
 70
    0
  9
$DIMFXL
 40
1
  9
$DIMFXLON
 70
    0
  9
$DIMJOGANG
 40
0.7854
  9
$DIMTFILL
 70
    0
  9
$DIMTFILLCLR
 70
    0
  9
$DIMARCSYM
 70
    0
  9
$DIMLTYPE
  6

  9
$DIMLTEX1
  6

  9
$DIMLTEX2
  6

  9
$LUNITS
 70
    2
  9
$LUPREC
 70
    2
  9
$SKETCHINC
 40
1
  9
$FILLETRAD
 40
0
  9
$AUNITS
 70
    0
  9
$AUPREC
 70
    2
  9
$MENU
  1
.
  9
$ELEVATION
 40
0
  9
$PELEVATION
 40
0
  9
$THICKNESS
 40
0
  9
$LIMCHECK
 70
    0
  9
$CHAMFERA
 40
0
  9
$CHAMFERB
 40
0
  9
$CHAMFERC
 40
0
  9
$CHAMFERD
 40
0
  9
$SKPOLY
 70
    0
  9
$USRTIMER
 70
    1
  9
$ANGBASE
 50
0
  9
$ANGDIR
 70
    0
  9
$PDMODE
 70
    0
  9
$PDSIZE
 40
-1
  9
$PLINEWID
 40
0
  9
$SPLFRAME
 70
    0
  9
$SPLINETYPE
 70
    6
  9
$SPLINESEGS
 70
    8
  9
$HANDSEED
  5
20000
  9
$SURFTAB1
 70
    6
  9
$SURFTAB2
 70
    6
  9
$SURFTYPE
 70
    6
  9
$SURFU
 70
    6
  9
$SURFV
 70
    6
  9
$UCSBASE
  2

  9
$UCSNAME
  2

  9
$UCSORG
 10
0
 20
0
 30
0
  9
$UCSXDIR
 10
1
 20
0
 30
0
  9
$UCSYDIR
 10
0
 20
1
 30
0
  9
$UCSORTHOREF
  2

  9
$UCSORTHOVIEW
 70
    0
  9
$UCSORGTOP
 10
0
 20
0
 30
0
  9
$UCSORGBOTTOM
 10
0
 20
0
 30
0
  9
$UCSORGLEFT
 10
0
 20
0
 30
0
  9
$UCSORGRIGHT
 10
0
 20
0
 30
0
  9
$UCSORGFRONT
 10
0
 20
0
 30
0
  9
$UCSORGBACK
 10
0
 20
0
 30
0
  9
$PUCSBASE
  2

  9
$PUCSNAME
  2

  9
$PUCSORG
 10
0
 20
0
 30
0
  9
$PUCSXDIR
 10
1
 20
0
 30
0
  9
$PUCSYDIR
 10
0
 20
1
 30
0
  9
$PUCSORTHOREF
  2

  9
$PUCSORTHOVIEW
 70
    0
  9
$PUCSORGTOP
 10
0
 20
0
 30
0
  9
$PUCSORGBOTTOM
 10
0
 20
0
 30
0
  9
$PUCSORGLEFT
 10
0
 20
0
 30
0
  9
$PUCSORGRIGHT
 10
0
 20
0
 30
0
  9
$PUCSORGFRONT
 10
0
 20
0
 30
0
  9
$PUCSORGBACK
 10
0
 20
0
 30
0
  9
$USERI1
 70
    0
  9
$USERI2
 70
    0
  9
$USERI3
 70
    0
  9
$USERI4
 70
    0
  9
$USERI5
 70
    0
  9
$USERR1
 40
0
  9
$USERR2
 40
0
  9
$USERR3
 40
0
  9
$USERR4
 40
0
  9
$USERR5
 40
0
  9
$WORLDVIEW
 70
    1
  9
$SHADEDGE
 70
    3
  9
$SHADEDIF
 70
   70
  9
$TILEMODE
 70
    1
  9
$MAXACTVP
 70
   64
  9
$PINSBASE
 10
0
 20
0
 30
0
  9
$PLIMCHECK
 70
    0
  9
$PEXTMIN
 10
1e+020
 20
1e+020
 30
1e+020
  9
$PEXTMAX
 10
-1e+020
 20
-1e+020
 30
-1e+020
  9
$GRIDMODE
 70
    0
  9
$SNAPSTYLE
 70
    0
  9
$PLIMMIN
 10
0
 20
0
  9
$PLIMMAX
 10
420
 20
297
  9
$UNITMODE
 70
    0
  9
$VISRETAIN
 70
    1
  9
$PLINEGEN
 70
    0
  9
$PSLTSCALE
 70
    1
  9
$TREEDEPTH
 70
 3020
  9
$CMLSTYLE
  2
Standard
  9
$CMLJUST
 70
    0
  9
$CMLSCALE
 40
20
  9
$PROXYGRAPHICS
 70
    1
  9
$MEASUREMENT
 70
    1
  9
$CELWEIGHT
370
   -1
  9
$ENDCAPS
280
    0
  9
$JOINSTYLE
280
    0
  9
$LWDISPLAY
290
    1
  9
$INSUNITS
 70
    4
  9
$HYPERLINKBASE
  1

  9
$STYLESHEET
  1

  9
$XEDIT
290
    1
  9
$CEPSNTYPE
380
    0
  9
$PSTYLEMODE
290
    1
  9
$EXTNAMES
290
    1
  9
$PSVPSCALE
 40
0
  9
$OLESTARTUP
290
    0
  9
$SORTENTS
280
  127
  9
$INDEXCTL
280
    0
  9
$HIDETEXT
280
    1
  9
$XCLIPFRAME
290
    0
  9
$HALOGAP
280
    0
  9
$OBSCOLOR
 70
  257
  9
$OBSLTYPE
280
    0
  9
$INTERSECTIONDISPLAY
280
    0
  9
$INTERSECTIONCOLOR
 70
  257
  9
$DIMASSOC
280
    1
  9
$PROJECTNAME
  1

  9
$CAMERADISPLAY
290
    0
  9
$LENSLENGTH
 40
50
  9
$CAMERAHEIGHT
 40
0
  9
$STEPSPERSEC
 40
2
  9
$STEPSIZE
 40
50
  9
$3DDWFPREC
 40
2
  9
$PSOLWIDTH
 40
5
  9
$PSOLHEIGHT
 40
80
  9
$LOFTANG1
 40
1.570796326794897
  9
$LOFTANG2
 40
1.570796326794897
  9
$LOFTMAG1
 40
0
  9
$LOFTMAG2
 40
0
  9
$LOFTPARAM
 70
    7
  9
$LOFTNORMALS
280
    1
  9
$LATITUDE
 40
1
  9
$LONGITUDE
 40
1
  9
$NORTHDIRECTION
 40
0
  9
$TIMEZONE
 70
-8000
  9
$LIGHTGLYPHDISPLAY
280
    1
  9
$TILEMODELIGHTSYNCH
280
    1
  9
$SOLIDHIST
280
    1
  9
$SHOWHIST
280
    1
  9
$DWFFRAME
280
    2
  9
$DGNFRAME
280
    0
  9
$REALWORLDSCALE
290
    1
  9
$INTERFERECOLOR
 62
    1
  9
$CSHADOW
280
    0
  9
$SHADOWPLANELOCATION
 40
0
  0
ENDSEC
  0
SECTION
  2
CLASSES
  0
ENDSEC
  0
SECTION
  2
TABLES
  0
TABLE
  2
VPORT
  5
8
330
0
100
AcDbSymbolTable
 70
    1
  0
VPORT
  5
31
330
2
100
AcDbSymbolTableRecord
100
AcDbViewportTableRecord
  2
*ACTIVE
 70
    0
 10
0
 20
0
 11
1
 21
1
 12
481.8637167956055
 22
56.58473806623303
 13
0
 23
0
 14
10
 24
10
 15
10
 25
10
 16
0
 26
0
 36
1
 17
0
 27
0
 37
0
 40
312.5065884780729
 41
1.952986022871664
 42
50
 43
0
 44
0
 50
0
 51
0
 71
    0
 72
  100
 73
    1
 74
    3
 75
    0
 76
    0
 77
    0
 78
    0
281
    0
 65
    1
110
0
120
0
130
0
111
1
121
0
131
0
112
0
122
1
132
0
 79
    0
146
0
348
10020
 60
    7
 61
    5
292
1
282
    1
141
0
142
0
 63
  250
421
3358443
  0
ENDTAB
  0
TABLE
  2
LTYPE
  5
5
330
0
100
AcDbSymbolTable
 70
    4
  0
LTYPE
  5
14
330
5
100
AcDbSymbolTableRecord
100
AcDbLinetypeTableRecord
  2
ByBlock
 70
    0
  3

 72
   65
 73
    0
 40
0
  0
LTYPE
  5
15
330
5
100
AcDbSymbolTableRecord
100
AcDbLinetypeTableRecord
  2
ByLayer
 70
    0
  3

 72
   65
 73
    0
 40
0
  0
LTYPE
  5
16
330
5
100
AcDbSymbolTableRecord
100
AcDbLinetypeTableRecord
  2
Continuous
 70
    0
  3
Solid line
 72
   65
 73
    0
 40
0
  0
LTYPE
  5
32
330
5
100
AcDbSymbolTableRecord
100
AcDbLinetypeTableRecord
  2
DOT
 70
    0
  3
Dot . . . . . . . . . . . . . . . . . . . . . .
 72
   65
 73
    2
 40
6.35
 49
0
 74
    0
 49
-6.35
 74
    0
  0
LTYPE
  5
33
330
5
100
AcDbSymbolTableRecord
100
AcDbLinetypeTableRecord
  2
DOTTINY
 70
    0
  3
Dot (.15x) .....................................
 72
   65
 73
    2
 40
0.9525
 49
0
 74
    0
 49
-0.9525
 74
    0
  0
LTYPE
  5
34
330
5
100
AcDbSymbolTableRecord
100
AcDbLinetypeTableRecord
  2
DOT2
 70
    0
  3
Dot (.5x) .....................................
 72
   65
 73
    2
 40
3.175
 49
0
 74
    0
 49
-3.175
 74
    0
  0
LTYPE
  5
35
330
5
100
AcDbSymbolTableRecord
100
AcDbLinetypeTableRecord
  2
DOTX2
 70
    0
  3
Dot (2x) .  .  .  .  .  .  .  .  .  .  .  .  .
 72
   65
 73
    2
 40
12.7
 49
0
 74
    0
 49
-12.7
 74
    0
  0
LTYPE
  5
36
330
5
100
AcDbSymbolTableRecord
100
AcDbLinetypeTableRecord
  2
DASHED
 70
    0
  3
Dashed _ _ _ _ _ _ _ _ _ _ _ _ _ _ _ _ _
 72
   65
 73
    2
 40
19.05
 49
12.7
 74
    0
 49
-6.35
 74
    0
  0
LTYPE
  5
37
330
5
100
AcDbSymbolTableRecord
100
AcDbLinetypeTableRecord
  2
DASHEDTINY
 70
    0
  3
Dashed (.15x) _ _ _ _ _ _ _ _ _ _ _ _ _ _ _ _ _
 72
   65
 73
    2
 40
2.8575
 49
1.905
 74
    0
 49
-0.9525
 74
    0
  0
LTYPE
  5
38
330
5
100
AcDbSymbolTableRecord
100
AcDbLinetypeTableRecord
  2
DASHED2
 70
    0
  3
Dashed (.5x) _ _ _ _ _ _ _ _ _ _ _ _ _ _ _ _ _
 72
   65
 73
    2
 40
9.524999999999999
 49
6.35
 74
    0
 49
-3.175
 74
    0
  0
LTYPE
  5
39
330
5
100
AcDbSymbolTableRecord
100
AcDbLinetypeTableRecord
  2
DASHEDX2
 70
    0
  3
Dashed (2x) ____  ____  ____  ____  ____  ___
 72
   65
 73
    2
 40
38.09999999999999
 49
25.4
 74
    0
 49
-12.7
 74
    0
  0
LTYPE
  5
3A
330
5
100
AcDbSymbolTableRecord
100
AcDbLinetypeTableRecord
  2
DASHDOT
 70
    0
  3
Dash dot __ . __ . __ . __ . __ . __ . __ . __
 72
   65
 73
    4
 40
25.4
 49
12.7
 74
    0
 49
-6.35
 74
    0
 49
0
 74
    0
 49
-6.35
 74
    0
  0
LTYPE
  5
3B
330
5
100
AcDbSymbolTableRecord
100
AcDbLinetypeTableRecord
  2
DASHDOTTINY
 70
    0
  3
Dash dot (.15x) _._._._._._._._._._._._._._._.
 72
   65
 73
    4
 40
3.81
 49
1.905
 74
    0
 49
-0.9525
 74
    0
 49
0
 74
    0
 49
-0.9525
 74
    0
  0
LTYPE
  5
3C
330
5
100
AcDbSymbolTableRecord
100
AcDbLinetypeTableRecord
  2
DASHDOT2
 70
    0
  3
Dash dot (.5x) _._._._._._._._._._._._._._._.
 72
   65
 73
    4
 40
12.7
 49
6.35
 74
    0
 49
-3.175
 74
    0
 49
0
 74
    0
 49
-3.175
 74
    0
  0
LTYPE
  5
3D
330
5
100
AcDbSymbolTableRecord
100
AcDbLinetypeTableRecord
  2
DASHDOTX2
 70
    0
  3
Dash dot (2x) ____  .  ____  .  ____  .  ___
 72
   65
 73
    4
 40
50.8
 49
25.4
 74
    0
 49
-12.7
 74
    0
 49
0
 74
    0
 49
-12.7
 74
    0
  0
LTYPE
  5
3E
330
5
100
AcDbSymbolTableRecord
100
AcDbLinetypeTableRecord
  2
DIVIDE
 70
    0
  3
Divide ____ . . ____ . . ____ . . ____ . . ____
 72
   65
 73
    6
 40
31.75
 49
12.7
 74
    0
 49
-6.35
 74
    0
 49
0
 74
    0
 49
-6.35
 74
    0
 49
0
 74
    0
 49
-6.35
 74
    0
  0
LTYPE
  5
3F
330
5
100
AcDbSymbolTableRecord
100
AcDbLinetypeTableRecord
  2
DIVIDETINY
 70
    0
  3
Divide (.15x) __..__..__..__..__..__..__..__.._
 72
   65
 73
    6
 40
4.7625
 49
1.905
 74
    0
 49
-0.9525
 74
    0
 49
0
 74
    0
 49
-0.9525
 74
    0
 49
0
 74
    0
 49
-0.9525
 74
    0
  0
LTYPE
  5
40
330
5
100
AcDbSymbolTableRecord
100
AcDbLinetypeTableRecord
  2
DIVIDE2
 70
    0
  3
Divide (.5x) __..__..__..__..__..__..__..__.._
 72
   65
 73
    6
 40
15.875
 49
6.35
 74
    0
 49
-3.175
 74
    0
 49
0
 74
    0
 49
-3.175
 74
    0
 49
0
 74
    0
 49
-3.175
 74
    0
  0
LTYPE
  5
41
330
5
100
AcDbSymbolTableRecord
100
AcDbLinetypeTableRecord
  2
DIVIDEX2
 70
    0
  3
Divide (2x) ________  .  .  ________  .  .  _
 72
   65
 73
    6
 40
63.5
 49
25.4
 74
    0
 49
-12.7
 74
    0
 49
0
 74
    0
 49
-12.7
 74
    0
 49
0
 74
    0
 49
-12.7
 74
    0
  0
LTYPE
  5
42
330
5
100
AcDbSymbolTableRecord
100
AcDbLinetypeTableRecord
  2
BORDER
 70
    0
  3
Border __ __ . __ __ . __ __ . __ __ . __ __ .
 72
   65
 73
    6
 40
44.45
 49
12.7
 74
    0
 49
-6.35
 74
    0
 49
12.7
 74
    0
 49
-6.35
 74
    0
 49
0
 74
    0
 49
-6.35
 74
    0
  0
LTYPE
  5
43
330
5
100
AcDbSymbolTableRecord
100
AcDbLinetypeTableRecord
  2
BORDERTINY
 70
    0
  3
Border (.15x) __.__.__.__.__.__.__.__.__.__.__.
 72
   65
 73
    6
 40
6.6675
 49
1.905
 74
    0
 49
-0.9525
 74
    0
 49
1.905
 74
    0
 49
-0.9525
 74
    0
 49
0
 74
    0
 49
-0.9525
 74
    0
  0
LTYPE
  5
44
330
5
100
AcDbSymbolTableRecord
100
AcDbLinetypeTableRecord
  2
BORDER2
 70
    0
  3
Border (.5x) __.__.__.__.__.__.__.__.__.__.__.
 72
   65
 73
    6
 40
22.225
 49
6.35
 74
    0
 49
-3.175
 74
    0
 49
6.35
 74
    0
 49
-3.175
 74
    0
 49
0
 74
    0
 49
-3.175
 74
    0
  0
LTYPE
  5
45
330
5
100
AcDbSymbolTableRecord
100
AcDbLinetypeTableRecord
  2
BORDERX2
 70
    0
  3
Border (2x) ____  ____  .  ____  ____  .  ___
 72
   65
 73
    6
 40
88.89999999999999
 49
25.4
 74
    0
 49
-12.7
 74
    0
 49
25.4
 74
    0
 49
-12.7
 74
    0
 49
0
 74
    0
 49
-12.7
 74
    0
  0
LTYPE
  5
46
330
5
100
AcDbSymbolTableRecord
100
AcDbLinetypeTableRecord
  2
CENTER
 70
    0
  3
Center ____ _ ____ _ ____ _ ____ _ ____ _ ____
 72
   65
 73
    4
 40
50.8
 49
31.75
 74
    0
 49
-6.35
 74
    0
 49
6.35
 74
    0
 49
-6.35
 74
    0
  0
LTYPE
  5
47
330
5
100
AcDbSymbolTableRecord
100
AcDbLinetypeTableRecord
  2
CENTERTINY
 70
    0
  3
Center (.15x) ___ _ ___ _ ___ _ ___ _ ___ _ ___
 72
   65
 73
    4
 40
7.62
 49
4.7625
 74
    0
 49
-0.9525
 74
    0
 49
0.9525
 74
    0
 49
-0.9525
 74
    0
  0
LTYPE
  5
48
330
5
100
AcDbSymbolTableRecord
100
AcDbLinetypeTableRecord
  2
CENTER2
 70
    0
  3
Center (.5x) ___ _ ___ _ ___ _ ___ _ ___ _ ___
 72
   65
 73
    4
 40
28.575
 49
19.05
 74
    0
 49
-3.175
 74
    0
 49
3.175
 74
    0
 49
-3.175
 74
    0
  0
LTYPE
  5
49
330
5
100
AcDbSymbolTableRecord
100
AcDbLinetypeTableRecord
  2
CENTERX2
 70
    0
  3
Center (2x) ________  __  ________  __  _____
 72
   65
 73
    4
 40
101.6
 49
63.5
 74
    0
 49
-12.7
 74
    0
 49
12.7
 74
    0
 49
-12.7
 74
    0
  0
ENDTAB
  0
TABLE
  2
LAYER
  5
2
330
0
100
AcDbSymbolTable
 70
    1
  0
LAYER
  5
10
330
2
100
AcDbSymbolTableRecord
100
AcDbLayerTableRecord
  2
0
 70
    0
 62
    7
  6
CONTINUOUS
370
   -3
390
F
  0
ENDTAB
  0
TABLE
  2
STYLE
  5
3
330
0
100
AcDbSymbolTable
 70
    3
  0
STYLE
  5
4A
330
2
100
AcDbSymbolTableRecord
100
AcDbTextStyleTableRecord
  2
Standard
 70
    0
 40
0
 41
1
 50
0
 71
    0
 42
1
  3
txt
  4

  0
ENDTAB
  0
TABLE
  2
VIEW
  5
6
330
0
100
AcDbSymbolTable
 70
    0
  0
ENDTAB
  0
TABLE
  2
UCS
  5
7
330
0
100
AcDbSymbolTable
 70
    0
  0
ENDTAB
  0
TABLE
  2
APPID
  5
9
330
0
100
AcDbSymbolTable
 70
    1
  0
APPID
  5
12
330
9
100
AcDbSymbolTableRecord
100
AcDbRegAppTableRecord
  2
ACAD
 70
    0
  0
APPID
  5
4B
330
9
100
AcDbSymbolTableRecord
100
AcDbRegAppTableRecord
  2
LibreCad
 70
    0
  0
ENDTAB
  0
TABLE
  2
DIMSTYLE
  5
A
330
0
100
AcDbSymbolTable
 70
    1
100
AcDbDimStyleTable
 71
    1
  0
DIMSTYLE
105
4C
330
A
100
AcDbSymbolTableRecord
100
AcDbDimStyleTableRecord
  2
Standard
 70
    0
 40
1
 41
3.556
 42
0
 43
0.38
 44
1
 45
0
 46
0
 47
0
 48
0
 49
1
140
3.5
141
0.09
142
0
143
25.4
144
1
145
0
146
1
147
1.524
148
0
 71
    0
 72
    0
 73
    1
 74
    1
 75
    0
 76
    0
 77
    0
 78
    1
 79
    0
170
    0
171
    2
172
    0
173
    0
174
    0
175
    0
176
    0
177
    0
178
    0
179
    0
271
    2
272
    4
273
    2
274
    2
275
    0
276
    0
277
    2
278
   44
279
    0
280
    0
281
    0
282
    0
283
    1
284
    0
285
    0
286
    0
288
    0
289
    3
340
Standard
341

371
   -2
372
   -2
  0
ENDTAB
  0
TABLE
  2
BLOCK_RECORD
  5
1
330
0
100
AcDbSymbolTable
 70
    2
  0
BLOCK_RECORD
  5
1F
330
1
100
AcDbSymbolTableRecord
100
AcDbBlockTableRecord
  2
*Model_Space
 70
    0
280
    1
281
    0
  0
BLOCK_RECORD
  5
1E
330
1
100
AcDbSymbolTableRecord
100
AcDbBlockTableRecord
  2
*Paper_Space
 70
    0
280
    1
281
    0
  0
ENDTAB
  0
ENDSEC
  0
SECTION
  2
BLOCKS
  0
BLOCK
  5
20
330
1F
100
AcDbEntity
  8
0
100
AcDbBlockBegin
  2
*Model_Space
 70
    0
 10
0
 20
0
 30
0
  3
*Model_Space
  1

  0
ENDBLK
  5
21
330
1F
100
AcDbEntity
  8
0
100
AcDbBlockEnd
  0
BLOCK
  5
1C
330
1B
100
AcDbEntity
  8
0
100
AcDbBlockBegin
  2
*Paper_Space
 70
    0
 10
0
 20
0
 30
0
  3
*Paper_Space
  1

  0
ENDBLK
  5
1D
330
1F
100
AcDbEntity
  8
0
100
AcDbBlockEnd
  0
ENDSEC
  0
SECTION
  2
ENTITIES
  0
CIRCLE
  5
4D
100
AcDbEntity
  8
0
  6
CONTINUOUS
 62
    7
370
   25
100
AcDbCircle
 10
-22
 20
15
 40
4.004999999999997
  0
LWPOLYLINE
  5
4E
100
AcDbEntity
  8
0
  6
CONTINUOUS
 62
    7
370
   25
100
AcDbPolyline
 90
    9
 70
    0
 43
0
 10
-7.1153561891
 20
18.2342558472
 10
-7.1152691538
 20
18.2333020035
 10
-7.1151820858
 20
18.2323481627
 10
-7.1150949852
 20
18.2313943248
 10
-7.115007852
 20
18.23044049
 10
-7.1149206862
 20
18.2294866581
 10
-7.1148334877
 20
18.2285328293
 10
-7.1147462566
 20
18.2275790034
 10
-7.1146589928
 20
18.2266251805
  0
CIRCLE
  5
4F
100
AcDbEntity
  8
0
  6
CONTINUOUS
 62
    7
370
   25
100
AcDbCircle
 10
-204.5
 20
15
 40
4.004999999999985
  0
CIRCLE
  5
50
100
AcDbEntity
  8
0
  6
CONTINUOUS
 62
    7
370
   25
100
AcDbCircle
 10
-204.5
 20
-15
 40
4.00499999999999
  0
CIRCLE
  5
51
100
AcDbEntity
  8
0
  6
CONTINUOUS
 62
    7
370
   25
100
AcDbCircle
 10
-92
 20
0
 40
4.004999999999977
  0
CIRCLE
  5
52
100
AcDbEntity
  8
0
  6
CONTINUOUS
 62
    7
370
   25
100
AcDbCircle
 10
-142
 20
0
 40
4.004999999999998
  0
CIRCLE
  5
53
100
AcDbEntity
  8
0
  6
CONTINUOUS
 62
    7
370
   25
100
AcDbCircle
 10
-22
 20
-15
 40
4.004999999999992
  0
LWPOLYLINE
  5
54
100
AcDbEntity
  8
0
  6
CONTINUOUS
 62
    7
370
   25
100
AcDbPolyline
 90
    9
 70
    0
 43
0
 10
-7.1153561891
 20
-18.2342558472
 10
-7.1152691538
 20
-18.2333020035
 10
-7.1151820858
 20
-18.2323481627
 10
-7.1150949852
 20
-18.2313943248
 10
-7.115007852
 20
-18.23044049
 10
-7.1149206862
 20
-18.2294866581
 10
-7.1148334877
 20
-18.2285328293
 10
-7.1147462566
 20
-18.2275790034
 10
-7.1146589928
 20
-18.2266251805
  0
LINE
  5
55
100
AcDbEntity
  8
0
  6
CONTINUOUS
 62
    7
370
   25
100
AcDbLine
 10
0.4152855852
 20
-40
 11
1.4202975316
 21
-46.7706343722
  0
LINE
  5
56
100
AcDbEntity
  8
0
  6
CONTINUOUS
 62
    7
370
   25
100
AcDbLine
 10
25.7103246733
 20
15.5
 11
13.1420586355
 21
15.5
  0
LINE
  5
57
100
AcDbEntity
  8
0
  6
CONTINUOUS
 62
    7
370
   25
100
AcDbLine
 10
25.7103246733
 20
-15.5
 11
13.1420586355
 21
-15.5
  0
LINE
  5
58
100
AcDbEntity
  8
0
  6
CONTINUOUS
 62
    7
370
   25
100
AcDbLine
 10
1.6637739731
 20
15.5
 11
-4.1271405899
 21
15.5
  0
LINE
  5
59
100
AcDbEntity
  8
0
  6
CONTINUOUS
 62
    7
370
   25
100
AcDbLine
 10
-3.3668891372
 20
26
 11
-6.1451661421
 21
26
  0
LINE
  5
5A
100
AcDbEntity
  8
0
  6
CONTINUOUS
 62
    7
370
   25
100
AcDbLine
 10
0.4152855852
 20
40
 11
1.4202975316
 21
46.7706343722
  0
LINE
  5
5B
100
AcDbEntity
  8
0
  6
CONTINUOUS
 62
    7
370
   25
100
AcDbLine
 10
1.222465128
 20
47
 11
-1.2956121884
 21
47
  0
LINE
  5
5C
100
AcDbEntity
  8
0
  6
CONTINUOUS
 62
    7
370
   25
100
AcDbLine
 10
-2.5532340296
 20
40.0000000006
 11
-1.4932467239
 21
46.8306690454
  0
LINE
  5
5D
100
AcDbEntity
  8
0
  6
CONTINUOUS
 62
    7
370
   25
100
AcDbLine
 10
-0.6764797789
 20
35
 11
-3.2757019887
 21
35
  0
LINE
  5
5E
100
AcDbEntity
  8
0
  6
CONTINUOUS
 62
    7
370
   25
100
AcDbLine
 10
1.6637739726
 20
-15.5
 11
-4.1271405899
 21
-15.5
  0
LINE
  5
5F
100
AcDbEntity
  8
0
  6
CONTINUOUS
 62
    7
370
   25
100
AcDbLine
 10
-3.366889137
 20
-26
 11
-6.1451661421
 21
-26
  0
LINE
  5
60
100
AcDbEntity
  8
0
  6
CONTINUOUS
 62
    7
370
   25
100
AcDbLine
 10
-194.7234612864
 20
-16.1029528406
 11
-195.4180020182
 21
-20.041889066
  0
LINE
  5
61
100
AcDbEntity
  8
0
  6
CONTINUOUS
 62
    7
370
   25
100
AcDbLine
 10
-201.3268485363
 20
-25
 11
-207.4727207445
 21
-25
  0
LINE
  5
62
100
AcDbEntity
  8
0
  6
CONTINUOUS
 62
    7
370
   25
100
AcDbLine
 10
-213.3788573682
 20
-20.0571424609
 11
-214.327554745
 21
-14.7568763859
  0
LINE
  5
63
100
AcDbEntity
  8
0
  6
CONTINUOUS
 62
    7
370
   25
100
AcDbLine
 10
-218.6877154653
 20
-10.0166092093
 11
-225.5459759034
 21
-8.187739759099999
  0
LINE
  5
64
100
AcDbEntity
  8
0
  6
CONTINUOUS
 62
    7
370
   25
100
AcDbLine
 10
-230
 20
-2.3903301215
 11
-230
 21
2.3903301215
  0
LINE
  5
65
100
AcDbEntity
  8
0
  6
CONTINUOUS
 62
    7
370
   25
100
AcDbLine
 10
-218.6877154653
 20
10.0166092093
 11
-225.5459759034
 21
8.187739759099999
  0
LINE
  5
66
100
AcDbEntity
  8
0
  6
CONTINUOUS
 62
    7
370
   25
100
AcDbLine
 10
-213.3788573682
 20
20.0571424609
 11
-214.327554745
 21
14.7568763859
  0
LINE
  5
67
100
AcDbEntity
  8
0
  6
CONTINUOUS
 62
    7
370
   25
100
AcDbLine
 10
-201.3268485363
 20
25
 11
-207.4727207445
 21
25
  0
LINE
  5
68
100
AcDbEntity
  8
0
  6
CONTINUOUS
 62
    7
370
   25
100
AcDbLine
 10
-194.7234612864
 20
16.1029528406
 11
-195.4180020182
 21
20.041889066
  0
LINE
  5
69
100
AcDbEntity
  8
0
  6
CONTINUOUS
 62
    7
370
   25
100
AcDbLine
 10
-10
 20
45
 11
-3.9375094054
 21
62.3214016989
  0
LINE
  5
6A
100
AcDbEntity
  8
0
  6
CONTINUOUS
 62
    7
370
   25
100
AcDbLine
 10
4.6956415222
 20
65
 11
-0.1620759799
 21
65
  0
LINE
  5
6B
100
AcDbEntity
  8
0
  6
CONTINUOUS
 62
    7
370
   25
100
AcDbLine
 10
3.4467659695
 20
39.9999999999
 11
6.6757417571
 21
62.7185696184
  0
LINE
  5
6C
100
AcDbEntity
  8
0
  6
CONTINUOUS
 62
    7
370
   25
100
AcDbLine
 10
290.0000000015
 20
9.5599206845
 11
210.0000000015
 21
11
  0
LINE
  5
6D
100
AcDbEntity
  8
0
  6
CONTINUOUS
 62
    7
370
   25
100
AcDbLine
 10
745
 20
6.5
 11
630.0000000015
 21
6.5
  0
LINE
  5
6E
100
AcDbEntity
  8
0
  6
CONTINUOUS
 62
    7
370
   25
100
AcDbLine
 10
745
 20
-6.5
 11
630.0000000015
 21
-6.5
  0
LINE
  5
6F
100
AcDbEntity
  8
0
  6
CONTINUOUS
 62
    7
370
   25
100
AcDbLine
 10
290.0000000015
 20
-9.5599206845
 11
210.0000000015
 21
-11
  0
LINE
  5
70
100
AcDbEntity
  8
0
  6
CONTINUOUS
 62
    7
370
   25
100
AcDbLine
 10
3.4467659695
 20
-40.0000000001
 11
6.6757417575
 21
-62.7185696187
  0
LINE
  5
71
100
AcDbEntity
  8
0
  6
CONTINUOUS
 62
    7
370
   25
100
AcDbLine
 10
4.6956415226
 20
-65.0000000002
 11
-0.1620759799
 21
-65
  0
LINE
  5
72
100
AcDbEntity
  8
0
  6
CONTINUOUS
 62
    7
370
   25
100
AcDbLine
 10
-10
 20
-45
 11
-3.9375094054
 21
-62.3214016989
  0
LINE
  5
73
100
AcDbEntity
  8
0
  6
CONTINUOUS
 62
    7
370
   25
100
AcDbLine
 10
-0.6764797789
 20
-35
 11
-3.2757019888
 21
-35
  0
LINE
  5
74
100
AcDbEntity
  8
0
  6
CONTINUOUS
 62
    7
370
   25
100
AcDbLine
 10
-2.5532340299
 20
-40
 11
-1.4932467241
 21
-46.8306690454
  0
LINE
  5
75
100
AcDbEntity
  8
0
  6
CONTINUOUS
 62
    7
370
   25
100
AcDbLine
 10
1.222465128
 20
-47
 11
-1.2956121886
 21
-47
  0
ARC
  5
76
100
AcDbEntity
  8
0
  6
CONTINUOUS
 62
    7
370
   25
100
AcDbCircle
 10
25.7103246733
 20
-15.7
 40
0.2000000000000064
100
AcDbArc
 50
286.478756711
 51
90
  0
ARC
  5
77
100
AcDbEntity
  8
0
  6
CONTINUOUS
 62
    7
370
   25
100
AcDbCircle
 10
13.1420586355
 20
-15.7
 40
0.2000000000000028
100
AcDbArc
 50
90
 51
258.6571446324
  0
ARC
  5
78
100
AcDbEntity
  8
0
  6
CONTINUOUS
 62
    7
370
   25
100
AcDbCircle
 10
19.9701278597
 20
-14.6206262052
 40
3.000000000000069
100
AcDbArc
 50
251.6168888115
 51
289.4914782415
  0
ARC
  5
79
100
AcDbEntity
  8
0
  6
CONTINUOUS
 62
    7
370
   25
100
AcDbCircle
 10
13.1420586355
 20
15.7
 40
0.2000000000000028
100
AcDbArc
 50
101.3428553676
 51
270
  0
ARC
  5
7A
100
AcDbEntity
  8
0
  6
CONTINUOUS
 62
    7
370
   25
100
AcDbCircle
 10
25.7103246733
 20
15.7
 40
0.2000000000000046
100
AcDbArc
 50
270
 51
73.521243289
  0
ARC
  5
7B
100
AcDbEntity
  8
0
  6
CONTINUOUS
 62
    7
370
   25
100
AcDbCircle
 10
19.9701278597
 20
14.6206262052
 40
2.999999999999973
100
AcDbArc
 50
70.5085217585
 51
108.3831111885
  0
ARC
  5
7C
100
AcDbEntity
  8
0
  6
CONTINUOUS
 62
    7
370
   25
100
AcDbCircle
 10
-0.6764797789
 20
-35.2
 40
0.2000000000000031
100
AcDbArc
 50
12.5307577928
 51
90
  0
ARC
  5
7D
100
AcDbEntity
  8
0
  6
CONTINUOUS
 62
    7
370
   25
100
AcDbCircle
 10
-3.2757019888
 20
-35.2
 40
0.2000000000000677
100
AcDbArc
 50
90
 51
193.0179453059
  0
ARC
  5
7E
100
AcDbEntity
  8
0
  6
CONTINUOUS
 62
    7
370
   25
100
AcDbCircle
 10
-1.2956121886
 20
-46.8
 40
0.2000000000000023
100
AcDbArc
 50
188.8208374346
 51
270
  0
ARC
  5
7F
100
AcDbEntity
  8
0
  6
CONTINUOUS
 62
    7
370
   25
100
AcDbCircle
 10
1.222465128
 20
-46.8
 40
0.2000000000000598
100
AcDbArc
 50
270
 51
8.443157037500001
  0
ARC
  5
80
100
AcDbEntity
  8
0
  6
CONTINUOUS
 62
    7
370
   25
100
AcDbCircle
 10
1.6637739726
 20
-15.7
 40
0.2000000000000082
100
AcDbArc
 50
295.6990481585
 51
90
  0
ARC
  5
81
100
AcDbEntity
  8
0
  6
CONTINUOUS
 62
    7
370
   25
100
AcDbCircle
 10
-4.1271405899
 20
-18.5
 40
3.000000000000057
100
AcDbArc
 50
90
 51
174.7716726506
  0
ARC
  5
82
100
AcDbEntity
  8
0
  6
CONTINUOUS
 62
    7
370
   25
100
AcDbCircle
 10
-6.1451661421
 20
-25.8
 40
0.1999999999999424
100
AcDbArc
 50
196.8782030481
 51
270
  0
ARC
  5
83
100
AcDbEntity
  8
0
  6
CONTINUOUS
 62
    7
370
   25
100
AcDbCircle
 10
-3.366889137
 20
-25.8
 40
0.2000000000000206
100
AcDbArc
 50
270
 51
11.3464962925
  0
ARC
  5
84
100
AcDbEntity
  8
0
  6
CONTINUOUS
 62
    7
370
   25
100
AcDbCircle
 10
1.222465128
 20
46.8
 40
0.20000000000006
100
AcDbArc
 50
351.5568429625
 51
90
  0
ARC
  5
85
100
AcDbEntity
  8
0
  6
CONTINUOUS
 62
    7
370
   25
100
AcDbCircle
 10
-1.2956121884
 20
46.8
 40
0.1999999999999947
100
AcDbArc
 50
90
 51
171.1791625654
  0
ARC
  5
86
100
AcDbEntity
  8
0
  6
CONTINUOUS
 62
    7
370
   25
100
AcDbCircle
 10
-3.2757019887
 20
35.2
 40
0.2000000000000538
100
AcDbArc
 50
166.9820546941
 51
270
  0
ARC
  5
87
100
AcDbEntity
  8
0
  6
CONTINUOUS
 62
    7
370
   25
100
AcDbCircle
 10
-0.6764797789
 20
35.2
 40
0.2000000000000319
100
AcDbArc
 50
270
 51
347.4692422072
  0
ARC
  5
88
100
AcDbEntity
  8
0
  6
CONTINUOUS
 62
    7
370
   25
100
AcDbCircle
 10
-4.1271405899
 20
18.5
 40
3.000000000000065
100
AcDbArc
 50
185.2283273494
 51
270
  0
ARC
  5
89
100
AcDbEntity
  8
0
  6
CONTINUOUS
 62
    7
370
   25
100
AcDbCircle
 10
1.6637739731
 20
15.7
 40
0.2000000000000064
100
AcDbArc
 50
270
 51
64.3009518449
  0
ARC
  5
8A
100
AcDbEntity
  8
0
  6
CONTINUOUS
 62
    7
370
   25
100
AcDbCircle
 10
-3.3668891372
 20
25.8
 40
0.2000000000000313
100
AcDbArc
 50
348.6535037099
 51
90
  0
ARC
  5
8B
100
AcDbEntity
  8
0
  6
CONTINUOUS
 62
    7
370
   25
100
AcDbCircle
 10
-6.1451661421
 20
25.8
 40
0.199999999999946
100
AcDbArc
 50
90
 51
163.1217969519
  0
ARC
  5
8C
100
AcDbEntity
  8
0
  6
CONTINUOUS
 62
    7
370
   25
100
AcDbCircle
 10
-67.8938753491
 20
50.1395997796
 40
69.05760603464012
100
AcDbArc
 50
347.4692422072
 51
351.5568429624
  0
ARC
  5
8D
100
AcDbEntity
  8
0
  6
CONTINUOUS
 62
    7
370
   25
100
AcDbCircle
 10
5.6532998317
 20
-23.9899748737
 40
8.999999999302922
100
AcDbArc
 50
115.6990481585
 51
191.3464962925
  0
ARC
  5
8E
100
AcDbEntity
  8
0
  6
CONTINUOUS
 62
    7
370
   25
100
AcDbCircle
 10
-22.1125706891
 20
-9.9900565509
 40
18.00000000074549
100
AcDbArc
 50
206.3139152435
 51
250.9083971245
  0
ARC
  5
8F
100
AcDbEntity
  8
0
  6
CONTINUOUS
 62
    7
370
   25
100
AcDbCircle
 10
5.6532998317
 20
23.9899748741
 40
8.999999999430322
100
AcDbArc
 50
168.6535037099
 51
244.3009518449
  0
ARC
  5
90
100
AcDbEntity
  8
0
  6
CONTINUOUS
 62
    7
370
   25
100
AcDbCircle
 10
12.8019311643
 20
20.0513041673
 40
20.00000000290271
100
AcDbArc
 50
163.1217969528
 51
185.2126478432
  0
ARC
  5
91
100
AcDbEntity
  8
0
  6
CONTINUOUS
 62
    7
370
   25
100
AcDbCircle
 10
-67.89387526420001
 20
50.1395997646
 40
66.12269565226022
100
AcDbArc
 50
346.9820546902
 51
351.1791625676
  0
ARC
  5
92
100
AcDbEntity
  8
0
  6
CONTINUOUS
 62
    7
370
   25
100
AcDbCircle
 10
12.8019311588
 20
-20.0513041679
 40
19.99999999748191
100
AcDbArc
 50
174.7873521537
 51
196.8782030503
  0
ARC
  5
93
100
AcDbEntity
  8
0
  6
CONTINUOUS
 62
    7
370
   25
100
AcDbCircle
 10
-49.0039345896
 20
-23.2887236878
 40
12.00000000000726
100
AcDbArc
 50
26.3139152421
 51
100.183419545
  0
ARC
  5
94
100
AcDbEntity
  8
0
  6
CONTINUOUS
 62
    7
370
   25
100
AcDbCircle
 10
-46.7055355918
 20
-36.0839322459
 40
24.99999999999867
100
AcDbArc
 50
100.1834195451
 51
109.3767634353
  0
ARC
  5
95
100
AcDbEntity
  8
0
  6
CONTINUOUS
 62
    7
370
   25
100
AcDbCircle
 10
-96.4032311011
 20
201.8663745745
 40
218.32812483466
100
AcDbArc
 50
272.993908526
 51
280.9316382484
  0
ARC
  5
96
100
AcDbEntity
  8
0
  6
CONTINUOUS
 62
    7
370
   25
100
AcDbCircle
 10
-117
 20
595.6772256736
 40
612.6772256736413
100
AcDbArc
 50
267.006091474
 51
272.993908526
  0
ARC
  5
97
100
AcDbEntity
  8
0
  6
CONTINUOUS
 62
    7
370
   25
100
AcDbCircle
 10
-137.5967688989
 20
201.8663745745
 40
218.3281248346209
100
AcDbArc
 50
259.0683617517
 51
267.006091474
  0
ARC
  5
98
100
AcDbEntity
  8
0
  6
CONTINUOUS
 62
    7
370
   25
100
AcDbCircle
 10
-187.2944644082
 20
-36.0839322459
 40
25.00000000000226
100
AcDbArc
 50
70.62323656469999
 51
94.58902061489999
  0
ARC
  5
99
100
AcDbEntity
  8
0
  6
CONTINUOUS
 62
    7
370
   25
100
AcDbCircle
 10
-188.8146147683
 20
-17.1448419066
 40
5.999999999999915
100
AcDbArc
 50
94.58902061489999
 51
170
  0
ARC
  5
9A
100
AcDbEntity
  8
0
  6
CONTINUOUS
 62
    7
370
   25
100
AcDbCircle
 10
-201.3268485363
 20
-19
 40
5.999999999999773
100
AcDbArc
 50
270
 51
350
  0
ARC
  5
9B
100
AcDbEntity
  8
0
  6
CONTINUOUS
 62
    7
370
   25
100
AcDbCircle
 10
-207.4727207445
 20
-19
 40
6.000000000000109
100
AcDbArc
 50
190.1479400616
 51
270
  0
ARC
  5
9C
100
AcDbEntity
  8
0
  6
CONTINUOUS
 62
    7
370
   25
100
AcDbCircle
 10
-220.2336913686
 20
-15.8140188469
 40
6.000000000000139
100
AcDbArc
 50
10.1479400615
 51
75.06858282189999
  0
ARC
  5
9D
100
AcDbEntity
  8
0
  6
CONTINUOUS
 62
    7
370
   25
100
AcDbCircle
 10
-224
 20
-2.3903301215
 40
6.000000000000114
100
AcDbArc
 50
180
 51
255.0685828219
  0
ARC
  5
9E
100
AcDbEntity
  8
0
  6
CONTINUOUS
 62
    7
370
   25
100
AcDbCircle
 10
-224
 20
2.3903301215
 40
6.000000000000114
100
AcDbArc
 50
104.9314171781
 51
180
  0
ARC
  5
9F
100
AcDbEntity
  8
0
  6
CONTINUOUS
 62
    7
370
   25
100
AcDbCircle
 10
-220.2336913686
 20
15.8140188469
 40
6.000000000000071
100
AcDbArc
 50
284.9314171781
 51
349.8520599385
  0
ARC
  5
A0
100
AcDbEntity
  8
0
  6
CONTINUOUS
 62
    7
370
   25
100
AcDbCircle
 10
-207.4727207445
 20
19
 40
6.000000000000026
100
AcDbArc
 50
90
 51
169.8520599385
  0
ARC
  5
A1
100
AcDbEntity
  8
0
  6
CONTINUOUS
 62
    7
370
   25
100
AcDbCircle
 10
-201.3268485363
 20
19
 40
6.000000000000149
100
AcDbArc
 50
10
 51
90
  0
ARC
  5
A2
100
AcDbEntity
  8
0
  6
CONTINUOUS
 62
    7
370
   25
100
AcDbCircle
 10
-188.8146147683
 20
17.1448419066
 40
5.999999999999787
100
AcDbArc
 50
190
 51
265.4109793851
  0
ARC
  5
A3
100
AcDbEntity
  8
0
  6
CONTINUOUS
 62
    7
370
   25
100
AcDbCircle
 10
-187.2944644082
 20
36.0839322459
 40
25.00000000000166
100
AcDbArc
 50
265.4109793851
 51
289.3767634353
  0
ARC
  5
A4
100
AcDbEntity
  8
0
  6
CONTINUOUS
 62
    7
370
   25
100
AcDbCircle
 10
-137.5967688989
 20
-201.8663745745
 40
218.3281248346356
100
AcDbArc
 50
92.993908526
 51
100.9316382484
  0
ARC
  5
A5
100
AcDbEntity
  8
0
  6
CONTINUOUS
 62
    7
370
   25
100
AcDbCircle
 10
-117
 20
-595.6772256734999
 40
612.6772256735469
100
AcDbArc
 50
87.006091474
 51
92.993908526
  0
ARC
  5
A6
100
AcDbEntity
  8
0
  6
CONTINUOUS
 62
    7
370
   25
100
AcDbCircle
 10
-96.4032311011
 20
-201.8663745745
 40
218.3281248346771
100
AcDbArc
 50
79.0683617517
 51
87.006091474
  0
ARC
  5
A7
100
AcDbEntity
  8
0
  6
CONTINUOUS
 62
    7
370
   25
100
AcDbCircle
 10
-46.7055355918
 20
36.0839322459
 40
24.99999999999932
100
AcDbArc
 50
250.6232365647
 51
259.8165804549
  0
ARC
  5
A8
100
AcDbEntity
  8
0
  6
CONTINUOUS
 62
    7
370
   25
100
AcDbCircle
 10
-49.0039345896
 20
23.2887236878
 40
11.99999999998909
100
AcDbArc
 50
259.8165804549
 51
333.686084758
  0
ARC
  5
A9
100
AcDbEntity
  8
0
  6
CONTINUOUS
 62
    7
370
   25
100
AcDbCircle
 10
-22.1125706902
 20
9.9900565525
 40
17.99999999911562
100
AcDbArc
 50
109.0916028741
 51
153.6860847596
  0
ARC
  5
AA
100
AcDbEntity
  8
0
  6
CONTINUOUS
 62
    7
370
   25
100
AcDbCircle
 10
-37.6923076922
 20
54.6923076924
 40
29.3394739850665
100
AcDbArc
 50
289.2900462189
 51
340.7099537806
  0
ARC
  5
AB
100
AcDbEntity
  8
0
  6
CONTINUOUS
 62
    7
370
   25
100
AcDbCircle
 10
-0.1620759799
 20
61
 40
4.000000000000067
100
AcDbArc
 50
90
 51
160.7099537808
  0
ARC
  5
AC
100
AcDbEntity
  8
0
  6
CONTINUOUS
 62
    7
370
   25
100
AcDbCircle
 10
4.6956415222
 20
63
 40
2.000000000000021
100
AcDbArc
 50
351.9107666415
 51
90
  0
ARC
  5
AD
100
AcDbEntity
  8
0
  6
CONTINUOUS
 62
    7
370
   25
100
AcDbCircle
 10
-67.8938753501
 20
50.1395997799
 40
72.05760603564556
100
AcDbArc
 50
340.4272074016
 51
351.9107666427
  0
ARC
  5
AE
100
AcDbEntity
  8
0
  6
CONTINUOUS
 62
    7
370
   25
100
AcDbCircle
 10
5.653299832
 20
23.9899748742
 40
5.999999999751553
100
AcDbArc
 50
160.4272074067
 51
273.3125878865
  0
ARC
  5
AF
100
AcDbEntity
  8
0
  6
CONTINUOUS
 62
    7
370
   25
100
AcDbCircle
 10
3.2906041461
 20
64.81051399010001
 40
46.88885844090694
100
AcDbArc
 50
273.3125878917
 51
289.1535875364
  0
ARC
  5
B0
100
AcDbEntity
  8
0
  6
CONTINUOUS
 62
    7
370
   25
100
AcDbCircle
 10
19.9873173034
 20
16.7387376217
 40
4.000000000530956
100
AcDbArc
 50
70.10023429909999
 51
109.1535875384
  0
ARC
  5
B1
100
AcDbEntity
  8
0
  6
CONTINUOUS
 62
    7
370
   25
100
AcDbCircle
 10
52.9715896511
 20
107.8579482502
 40
92.90548368258601
100
AcDbArc
 50
250.1002342918
 51
268.1670770914
  0
ARC
  5
B2
100
AcDbEntity
  8
0
  6
CONTINUOUS
 62
    7
370
   25
100
AcDbCircle
 10
415.8833552025
 20
11448.334208322
 40
11439.18711049003
100
AcDbArc
 50
268.1670770887
 51
268.9687305431
  0
ARC
  5
B3
100
AcDbEntity
  8
0
  6
CONTINUOUS
 62
    7
370
   25
100
AcDbCircle
 10
630.0000000011
 20
18897.4084634672
 40
18890.9084634672
100
AcDbArc
 50
268.968730543
 51
270
  0
ARC
  5
B4
100
AcDbEntity
  8
0
  6
CONTINUOUS
 62
    7
370
   25
100
AcDbCircle
 10
745
 20
217.1437927083
 40
210.6437927083116
100
AcDbArc
 50
270
 51
275.857992546
  0
ARC
  5
B5
100
AcDbEntity
  8
0
  6
CONTINUOUS
 62
    7
370
   25
100
AcDbCircle
 10
766.7425528973
 20
5.2260181362
 40
2.386444079988634
100
AcDbArc
 50
18.924644416
 51
95.85799254600001
  0
ARC
  5
B6
100
AcDbEntity
  8
0
  6
CONTINUOUS
 62
    7
370
   25
100
AcDbCircle
 10
751.5
 20
0
 40
18.49999999999355
100
AcDbArc
 50
341.0753555839
 51
18.9246444161
  0
ARC
  5
B7
100
AcDbEntity
  8
0
  6
CONTINUOUS
 62
    7
370
   25
100
AcDbCircle
 10
766.7425528973
 20
-5.2260181362
 40
2.386444079990348
100
AcDbArc
 50
264.142007454
 51
341.075355584
  0
ARC
  5
B8
100
AcDbEntity
  8
0
  6
CONTINUOUS
 62
    7
370
   25
100
AcDbCircle
 10
745
 20
-217.1437927084
 40
210.6437927083918
100
AcDbArc
 50
84.14200745399999
 51
90
  0
ARC
  5
B9
100
AcDbEntity
  8
0
  6
CONTINUOUS
 62
    7
370
   25
100
AcDbCircle
 10
630.0000000012
 20
-18897.4084634705
 40
18890.90846347053
100
AcDbArc
 50
90
 51
91.03126945699999
  0
ARC
  5
BA
100
AcDbEntity
  8
0
  6
CONTINUOUS
 62
    7
370
   25
100
AcDbCircle
 10
415.8833552026
 20
-11448.3342083236
 40
11439.18711049163
100
AcDbArc
 50
91.03126945690001
 51
91.8329229113
  0
ARC
  5
BB
100
AcDbEntity
  8
0
  6
CONTINUOUS
 62
    7
370
   25
100
AcDbCircle
 10
52.9715896511
 20
-107.8579482502
 40
92.90548368258582
100
AcDbArc
 50
91.8329229086
 51
109.8997657082
  0
ARC
  5
BC
100
AcDbEntity
  8
0
  6
CONTINUOUS
 62
    7
370
   25
100
AcDbCircle
 10
19.9873173034
 20
-16.7387376217
 40
4.00000000053065
100
AcDbArc
 50
250.8464124616
 51
289.8997657009
  0
ARC
  5
BD
100
AcDbEntity
  8
0
  6
CONTINUOUS
 62
    7
370
   25
100
AcDbCircle
 10
3.2906041482
 20
-64.81051397500001
 40
46.88885842593069
100
AcDbArc
 50
70.84641246
 51
86.6874121099
  0
ARC
  5
BE
100
AcDbEntity
  8
0
  6
CONTINUOUS
 62
    7
370
   25
100
AcDbCircle
 10
5.6532998318
 20
-23.9899748739
 40
5.999999999717013
100
AcDbArc
 50
86.6874121111
 51
199.5727925967
  0
ARC
  5
BF
100
AcDbEntity
  8
0
  6
CONTINUOUS
 62
    7
370
   25
100
AcDbCircle
 10
-67.8938753568
 20
-50.1395997819
 40
72.05760604254615
100
AcDbArc
 50
8.0892333579
 51
19.5727925981
  0
ARC
  5
C0
100
AcDbEntity
  8
0
  6
CONTINUOUS
 62
    7
370
   25
100
AcDbCircle
 10
4.6956415224
 20
-63.0000000001
 40
2.000000000145747
100
AcDbArc
 50
270.0000000048
 51
8.089233352300001
  0
ARC
  5
C1
100
AcDbEntity
  8
0
  6
CONTINUOUS
 62
    7
370
   25
100
AcDbCircle
 10
-0.1620759799
 20
-61
 40
4.000000000001208
100
AcDbArc
 50
199.2900462192
 51
270
  0
ARC
  5
C2
100
AcDbEntity
  8
0
  6
CONTINUOUS
 62
    7
370
   25
100
AcDbCircle
 10
-37.6923076917
 20
-54.6923076916
 40
29.33947398441055
100
AcDbArc
 50
19.2900462182
 51
70.7099537814
  0
ARC
  5
C3
100
AcDbEntity
  8
0
  6
CONTINUOUS
 62
    7
370
   25
100
AcDbCircle
 10
-67.8938753491
 20
-50.1395997796
 40
69.05760603463966
100
AcDbArc
 50
8.443157037600001
 51
12.5307577928
  0
ARC
  5
C4
100
AcDbEntity
  8
0
  6
CONTINUOUS
 62
    7
370
   25
100
AcDbCircle
 10
-67.8938753491
 20
-50.1395997796
 40
66.12269573827905
100
AcDbArc
 50
8.8208374346
 51
13.017945306
  0
ARC
  5
C5
100
AcDbEntity
  8
0
  6
CONTINUOUS
 62
    7
370
   25
100
AcDbCircle
 10
52.9715896512
 20
107.8579482503
 40
95.90548368272326
100
AcDbArc
 50
250.5085217585
 51
253.521243289
  0
ARC
  5
C6
100
AcDbEntity
  8
0
  6
CONTINUOUS
 62
    7
370
   25
100
AcDbCircle
 10
3.2906041482
 20
64.81051397500001
 40
49.88885842585353
100
AcDbArc
 50
281.3428553676
 51
288.3831111885
  0
ARC
  5
C7
100
AcDbEntity
  8
0
  6
CONTINUOUS
 62
    7
370
   25
100
AcDbCircle
 10
3.2906041482
 20
-64.81051397500001
 40
49.88885842586357
100
AcDbArc
 50
71.6168888115
 51
78.6571446324
  0
ARC
  5
C8
100
AcDbEntity
  8
0
  6
CONTINUOUS
 62
    7
370
   25
100
AcDbCircle
 10
52.9715896511
 20
-107.8579482502
 40
95.90548368268946
100
AcDbArc
 50
106.478756711
 51
109.4914782415
  0
ENDSEC
  0
SECTION
  2
OBJECTS
  0
DICTIONARY
  5
C
330
0
100
AcDbDictionary
281
    1
  3
ACAD_GROUP
350
D
  0
DICTIONARY
  5
D
330
C
100
AcDbDictionary
281
    1
  0
ENDSEC
  0
EOF
